<svg xmlns="http://www.w3.org/2000/svg" xmlns:xlink="http://www.w3.org/1999/xlink" width="500" zoomAndPan="magnify" viewBox="0 0 375 374.999991" height="500" preserveAspectRatio="xMidYMid meet" version="1.0"><defs><g/></defs><g fill="#00ffff" fill-opacity="0.4"><g transform="translate(28.60865, 271.328905)"><g><path d="M 91.015625 -160.109375 C 89.390625 -160.28125 87.765625 -160.453125 85.96875 -160.40625 C 79.1875 -160.25 72.46875 -159.703125 65.78125 -158.765625 C 52.234375 -156.875 38.875 -153.59375 25.9375 -150.1875 C 17.828125 -148.234375 9.515625 -146.078125 1.171875 -144.296875 C 0.96875 -144.265625 0.78125 -144.03125 0.390625 -143.984375 L -0.15625 -143.6875 C -8.078125 -140.1875 -11.90625 -134.65625 -10.5625 -127.828125 C -9.453125 -121.375 -4.296875 -117.5 4.234375 -116.6875 C 6.25 -116.578125 8.25 -116.65625 10.421875 -116.765625 C 15.03125 -116.8125 19.609375 -117.0625 24.15625 -117.296875 L 30.75 -117.40625 L 31.421875 -114.09375 C 31.5625 -113.125 31.671875 -112.34375 31.8125 -111.359375 C 32.78125 -104.484375 33.53125 -97.59375 34.296875 -90.703125 C 36.28125 -73.765625 38.5 -56.453125 40.90625 -39.359375 C 41.75 -33.28125 43.890625 -26.78125 47.09375 -21.015625 C 50.3125 -15.265625 56.09375 -12.484375 63.15625 -13.46875 C 70.03125 -14.4375 74.84375 -18.71875 76.28125 -25.53125 C 77.5625 -30.71875 77.796875 -36.140625 76.9375 -40.84375 C 74.71875 -53.71875 71.5625 -66.296875 68.859375 -76.9375 C 66.28125 -86.78125 63.5 -96.59375 60.671875 -106.796875 C 59.21875 -111.40625 57.9375 -116.234375 56.671875 -121.046875 L 55.9375 -123.359375 L 74.015625 -125.890625 C 75.96875 -126.171875 77.921875 -126.4375 79.921875 -126.53125 C 84.046875 -127.109375 88.546875 -127.75 92.65625 -128.515625 C 100.984375 -130.46875 106.46875 -137.0625 106.140625 -145.03125 C 105.65625 -152.75 99.8125 -158.75 91.015625 -160.109375 Z M 91.015625 -160.109375 "/></g></g></g><g fill="#ffffff" fill-opacity="1"><g transform="translate(18.71416, 263.871328)"><g><path d="M 91.015625 -160.109375 C 89.390625 -160.28125 87.765625 -160.453125 85.96875 -160.40625 C 79.1875 -160.25 72.46875 -159.703125 65.78125 -158.765625 C 52.234375 -156.875 38.875 -153.59375 25.9375 -150.1875 C 17.828125 -148.234375 9.515625 -146.078125 1.171875 -144.296875 C 0.96875 -144.265625 0.78125 -144.03125 0.390625 -143.984375 L -0.15625 -143.6875 C -8.078125 -140.1875 -11.90625 -134.65625 -10.5625 -127.828125 C -9.453125 -121.375 -4.296875 -117.5 4.234375 -116.6875 C 6.25 -116.578125 8.25 -116.65625 10.421875 -116.765625 C 15.03125 -116.8125 19.609375 -117.0625 24.15625 -117.296875 L 30.75 -117.40625 L 31.421875 -114.09375 C 31.5625 -113.125 31.671875 -112.34375 31.8125 -111.359375 C 32.78125 -104.484375 33.53125 -97.59375 34.296875 -90.703125 C 36.28125 -73.765625 38.5 -56.453125 40.90625 -39.359375 C 41.75 -33.28125 43.890625 -26.78125 47.09375 -21.015625 C 50.3125 -15.265625 56.09375 -12.484375 63.15625 -13.46875 C 70.03125 -14.4375 74.84375 -18.71875 76.28125 -25.53125 C 77.5625 -30.71875 77.796875 -36.140625 76.9375 -40.84375 C 74.71875 -53.71875 71.5625 -66.296875 68.859375 -76.9375 C 66.28125 -86.78125 63.5 -96.59375 60.671875 -106.796875 C 59.21875 -111.40625 57.9375 -116.234375 56.671875 -121.046875 L 55.9375 -123.359375 L 74.015625 -125.890625 C 75.96875 -126.171875 77.921875 -126.4375 79.921875 -126.53125 C 84.046875 -127.109375 88.546875 -127.75 92.65625 -128.515625 C 100.984375 -130.46875 106.46875 -137.0625 106.140625 -145.03125 C 105.65625 -152.75 99.8125 -158.75 91.015625 -160.109375 Z M 91.015625 -160.109375 "/></g></g></g><g fill="#ffffff" fill-opacity="1"><g transform="translate(114.696685, 230.797955)"><g><path d="M 22.96875 -57.6875 C 22.59375 -57.703125 22.234375 -57.640625 21.8125 -57.59375 C 21.09375 -57.484375 20.328125 -57.3125 19.546875 -57.0625 L 18.828125 -56.890625 C 7.921875 -53.890625 1.5 -46.625 -0.84375 -34.671875 C -2.25 -27.53125 -0.265625 -19.109375 4.203125 -13.3125 C 8.203125 -8.171875 14.046875 -5.1875 20.96875 -4.78125 L 21.203125 -4.734375 C 22.3125 -4.65625 23.390625 -4.59375 24.515625 -4.609375 C 32.078125 -4.8125 37.640625 -7.765625 41.46875 -13.875 L 42.6875 -15.65625 C 43.65625 -17.171875 44.671875 -18.765625 45.625 -20.28125 C 48.296875 -24.609375 49.421875 -29.671875 49.078125 -36.265625 C 45.859375 -52.359375 36.3125 -56.40625 22.96875 -57.6875 Z M 36.1875 -33.296875 C 35.984375 -32.625 35.796875 -31.921875 35.59375 -31.171875 C 35.109375 -29.5 34.625 -27.828125 33.90625 -26.109375 C 33.421875 -24.9375 32.671875 -23.96875 32 -23 C 31.703125 -22.578125 31.390625 -22.171875 31.15625 -21.78125 C 29.453125 -19.359375 26.890625 -17.734375 23.96875 -17.328125 C 23.234375 -17.21875 22.578125 -17.203125 21.84375 -17.25 C 17.953125 -17.4375 14.484375 -19.65625 12.609375 -23.125 C 9.828125 -28.421875 10.015625 -33.859375 13.125 -40.296875 C 15.109375 -44.453125 17.8125 -45.484375 22.265625 -43.921875 C 23.953125 -43.34375 25.71875 -42.796875 27.90625 -42.28125 C 32.671875 -41.078125 34.890625 -38.828125 36.1875 -33.734375 L 36.21875 -33.515625 Z M 36.1875 -33.296875 "/></g></g></g><g fill="#ffffff" fill-opacity="1"><g transform="translate(170.53898, 222.955491)"><g/></g></g><g fill="#00ffff" fill-opacity="0.4"><g transform="translate(180.915969, 240.550115)"><g><path d="M 89.25 -144.25 C 73.84375 -155.5 54.46875 -159.578125 34.703125 -156.203125 L 32.96875 -155.765625 L 32.40625 -156.890625 C 30.3125 -156.171875 28.390625 -155.53125 26.296875 -154.828125 C 20.40625 -152.609375 14.328125 -150.34375 8.671875 -147.75 C -1.8125 -142.6875 -3.359375 -139.453125 -2.09375 -127.40625 C -0.703125 -116.203125 0.703125 -104.796875 2.3125 -93.40625 C 4.234375 -76.859375 6.34375 -60.34375 8.28125 -43.609375 C 8.859375 -39.46875 7.953125 -34.546875 6.171875 -30.296875 C 4.0625 -25.203125 3.8125 -19.953125 5.609375 -15.609375 C 7.125 -12.015625 9.90625 -9.203125 13.734375 -7.734375 C 19.65625 -5.359375 26.578125 -4.546875 32.21875 -5.71875 C 57.59375 -10.5 80.34375 -22.296875 99.5 -41.1875 C 114.65625 -55.9375 120.921875 -74.03125 117.921875 -95.421875 C 115.140625 -115.25 104.625 -133 89.25 -144.25 Z M 70.75 -67.78125 C 65.1875 -63.203125 59.34375 -59.171875 52.953125 -54.890625 C 50.03125 -52.859375 46.90625 -50.828125 43.828125 -48.59375 L 41.078125 -46.8125 L 26.453125 -125.21875 L 29.0625 -125.1875 C 30.84375 -125.25 32.84375 -125.328125 34.640625 -125.375 C 43.84375 -125.46875 53.1875 -125.78125 62.15625 -121.828125 C 72.375 -117.453125 79.515625 -108.0625 81.3125 -96.6875 C 82.890625 -85.5 78.984375 -74.75 70.75 -67.78125 Z M 70.75 -67.78125 "/></g></g></g><g fill="#ffffff" fill-opacity="1"><g transform="translate(171.021478, 233.092535)"><g><path d="M 89.25 -144.25 C 73.84375 -155.5 54.46875 -159.578125 34.703125 -156.203125 L 32.96875 -155.765625 L 32.40625 -156.890625 C 30.3125 -156.171875 28.390625 -155.53125 26.296875 -154.828125 C 20.40625 -152.609375 14.328125 -150.34375 8.671875 -147.75 C -1.8125 -142.6875 -3.359375 -139.453125 -2.09375 -127.40625 C -0.703125 -116.203125 0.703125 -104.796875 2.3125 -93.40625 C 4.234375 -76.859375 6.34375 -60.34375 8.28125 -43.609375 C 8.859375 -39.46875 7.953125 -34.546875 6.171875 -30.296875 C 4.0625 -25.203125 3.8125 -19.953125 5.609375 -15.609375 C 7.125 -12.015625 9.90625 -9.203125 13.734375 -7.734375 C 19.65625 -5.359375 26.578125 -4.546875 32.21875 -5.71875 C 57.59375 -10.5 80.34375 -22.296875 99.5 -41.1875 C 114.65625 -55.9375 120.921875 -74.03125 117.921875 -95.421875 C 115.140625 -115.25 104.625 -133 89.25 -144.25 Z M 70.75 -67.78125 C 65.1875 -63.203125 59.34375 -59.171875 52.953125 -54.890625 C 50.03125 -52.859375 46.90625 -50.828125 43.828125 -48.59375 L 41.078125 -46.8125 L 26.453125 -125.21875 L 29.0625 -125.1875 C 30.84375 -125.25 32.84375 -125.328125 34.640625 -125.375 C 43.84375 -125.46875 53.1875 -125.78125 62.15625 -121.828125 C 72.375 -117.453125 79.515625 -108.0625 81.3125 -96.6875 C 82.890625 -85.5 78.984375 -74.75 70.75 -67.78125 Z M 70.75 -67.78125 "/></g></g></g><g fill="#ffffff" fill-opacity="1"><g transform="translate(316.158727, 203.232279)"><g><path d="M 22.96875 -57.6875 C 22.59375 -57.703125 22.234375 -57.640625 21.8125 -57.59375 C 21.09375 -57.484375 20.328125 -57.3125 19.546875 -57.0625 L 18.828125 -56.890625 C 7.921875 -53.890625 1.5 -46.625 -0.84375 -34.671875 C -2.25 -27.53125 -0.265625 -19.109375 4.203125 -13.3125 C 8.203125 -8.171875 14.046875 -5.1875 20.96875 -4.78125 L 21.203125 -4.734375 C 22.3125 -4.65625 23.390625 -4.59375 24.515625 -4.609375 C 32.078125 -4.8125 37.640625 -7.765625 41.46875 -13.875 L 42.6875 -15.65625 C 43.65625 -17.171875 44.671875 -18.765625 45.625 -20.28125 C 48.296875 -24.609375 49.421875 -29.671875 49.078125 -36.265625 C 45.859375 -52.359375 36.3125 -56.40625 22.96875 -57.6875 Z M 36.1875 -33.296875 C 35.984375 -32.625 35.796875 -31.921875 35.59375 -31.171875 C 35.109375 -29.5 34.625 -27.828125 33.90625 -26.109375 C 33.421875 -24.9375 32.671875 -23.96875 32 -23 C 31.703125 -22.578125 31.390625 -22.171875 31.15625 -21.78125 C 29.453125 -19.359375 26.890625 -17.734375 23.96875 -17.328125 C 23.234375 -17.21875 22.578125 -17.203125 21.84375 -17.25 C 17.953125 -17.4375 14.484375 -19.65625 12.609375 -23.125 C 9.828125 -28.421875 10.015625 -33.859375 13.125 -40.296875 C 15.109375 -44.453125 17.8125 -45.484375 22.265625 -43.921875 C 23.953125 -43.34375 25.71875 -42.796875 27.90625 -42.28125 C 32.671875 -41.078125 34.890625 -38.828125 36.1875 -33.734375 L 36.21875 -33.515625 Z M 36.1875 -33.296875 "/></g></g></g><g fill="#ffffff" fill-opacity="1"><g transform="translate(145.129596, 314.932171)"><g><path d="M 1.828125 -44.203125 C 2.804688 -44.984375 3.582031 -45.382812 4.15625 -45.40625 C 4.738281 -45.4375 5.453125 -45.179688 6.296875 -44.640625 C 7.140625 -44.097656 7.671875 -43.445312 7.890625 -42.6875 C 8.117188 -41.925781 8.332031 -39.878906 8.53125 -36.546875 C 8.738281 -33.222656 9.160156 -28.773438 9.796875 -23.203125 C 10.441406 -17.628906 11.109375 -13.722656 11.796875 -11.484375 C 23.859375 -11.691406 31.28125 -11.617188 34.0625 -11.265625 C 35.757812 -10.960938 36.742188 -9.898438 37.015625 -8.078125 C 37.285156 -6.253906 36.644531 -4.96875 35.09375 -4.21875 C 34.019531 -3.675781 29.660156 -3.425781 22.015625 -3.46875 C 14.378906 -3.507812 9.921875 -3.789062 8.640625 -4.3125 C 6.378906 -5.320312 4.785156 -7.492188 3.859375 -10.828125 C 2.929688 -14.160156 2.046875 -20.765625 1.203125 -30.640625 L 0.203125 -42.96875 Z M 1.828125 -44.203125 "/></g></g></g><g fill="#ffffff" fill-opacity="1"><g transform="translate(184.614624, 313.122137)"><g><path d="M 0.515625 -44.21875 C 1.109375 -44.925781 2.054688 -45.3125 3.359375 -45.375 C 4.671875 -45.4375 5.722656 -45.117188 6.515625 -44.421875 C 7.316406 -43.734375 8.195312 -40.785156 9.15625 -35.578125 C 10.070312 -30.347656 10.820312 -23.585938 11.40625 -15.296875 C 12.019531 -7.015625 12.523438 -1.675781 12.921875 0.71875 C 13.316406 3.113281 13.203125 4.785156 12.578125 5.734375 C 11.984375 6.492188 11.015625 6.945312 9.671875 7.09375 C 8.328125 7.25 7.351562 7.003906 6.75 6.359375 C 6.039062 5.710938 5.332031 2.941406 4.625 -1.953125 C 3.914062 -6.847656 3.410156 -12.570312 3.109375 -19.125 C 2.816406 -25.6875 2.175781 -31.285156 1.1875 -35.921875 C 0.195312 -40.609375 -0.0234375 -43.375 0.515625 -44.21875 Z M 0.515625 -44.21875 "/></g></g></g><g fill="#ffffff" fill-opacity="1"><g transform="translate(199.801176, 312.42597)"><g><path d="M 14.8125 -43.859375 C 19.625 -44.078125 23.265625 -43.613281 25.734375 -42.46875 C 28.203125 -41.332031 29.941406 -39.316406 30.953125 -36.421875 C 31.660156 -34.566406 31.875 -33.007812 31.59375 -31.75 C 31.363281 -30.46875 30.625 -29.65625 29.375 -29.3125 C 28.132812 -28.96875 27.117188 -29.019531 26.328125 -29.46875 C 25.535156 -30.007812 24.769531 -30.96875 24.03125 -32.34375 C 23.332031 -33.707031 22.726562 -34.617188 22.21875 -35.078125 C 21.71875 -35.546875 21.0625 -35.832031 20.25 -35.9375 C 16.0625 -36.613281 12.835938 -36.222656 10.578125 -34.765625 C 8.890625 -33.617188 8.40625 -32.554688 9.125 -31.578125 C 9.84375 -30.597656 12.71875 -28.976562 17.75 -26.71875 C 22.78125 -24.46875 26.347656 -22.613281 28.453125 -21.15625 C 30.554688 -19.707031 31.929688 -18.25 32.578125 -16.78125 C 33.222656 -15.3125 33.492188 -13.582031 33.390625 -11.59375 C 33.285156 -9.613281 32.859375 -7.859375 32.109375 -6.328125 C 28.242188 1.296875 20.644531 2.632812 9.3125 -2.3125 C 3.9375 -4.625 2.300781 -7.054688 4.40625 -9.609375 C 5.1875 -10.617188 6.15625 -11.097656 7.3125 -11.046875 C 8.476562 -11.003906 10.253906 -10.460938 12.640625 -9.421875 C 15.035156 -8.378906 17.25 -7.804688 19.28125 -7.703125 C 21.3125 -7.597656 22.585938 -7.65625 23.109375 -7.875 C 23.628906 -8.09375 24.164062 -8.550781 24.71875 -9.25 C 25.4375 -10.382812 25.773438 -11.382812 25.734375 -12.25 C 25.703125 -13.125 24.863281 -14.148438 23.21875 -15.328125 C 21.570312 -16.515625 18.546875 -17.960938 14.140625 -19.671875 C 9.734375 -21.378906 6.425781 -23.097656 4.21875 -24.828125 C 2.019531 -26.554688 0.859375 -28.796875 0.734375 -31.546875 C 0.566406 -35.171875 2.320312 -38.394531 6 -41.21875 C 7.445312 -42.394531 8.597656 -43.097656 9.453125 -43.328125 C 10.316406 -43.554688 12.101562 -43.734375 14.8125 -43.859375 Z M 14.8125 -43.859375 "/></g></g></g><g fill="#ffffff" fill-opacity="1"><g transform="translate(235.887309, 310.771745)"><g><path d="M 21.546875 -35.78125 C 21.015625 -35.757812 20.910156 -35.34375 21.234375 -34.53125 C 21.585938 -33.144531 22.101562 -27.972656 22.78125 -19.015625 C 23.457031 -10.054688 23.789062 -4.613281 23.78125 -2.6875 C 23.78125 -0.757812 23.476562 0.507812 22.875 1.125 C 22.28125 1.738281 21.453125 2.113281 20.390625 2.25 C 19.335938 2.394531 18.4375 2.195312 17.6875 1.65625 C 16.9375 1.113281 16.347656 -0.691406 15.921875 -3.765625 C 15.492188 -6.835938 14.910156 -13.171875 14.171875 -22.765625 L 13.140625 -35.671875 L 7.84375 -35.8125 C 5.09375 -35.925781 3.171875 -36.242188 2.078125 -36.765625 C 0.992188 -37.285156 0.414062 -38.363281 0.34375 -40 C 0.269531 -41.644531 1.085938 -42.75 2.796875 -43.3125 C 4.515625 -43.882812 7.359375 -44.039062 11.328125 -43.78125 C 15.296875 -43.519531 17.804688 -43.460938 18.859375 -43.609375 C 19.910156 -43.765625 21.390625 -44.222656 23.296875 -44.984375 C 25.191406 -45.847656 26.570312 -46.34375 27.4375 -46.46875 C 28.300781 -46.601562 29.273438 -46.457031 30.359375 -46.03125 C 31.148438 -45.582031 31.625 -44.679688 31.78125 -43.328125 C 31.9375 -41.984375 31.691406 -40.957031 31.046875 -40.25 C 30.410156 -39.539062 28.847656 -38.625 26.359375 -37.5 C 23.867188 -36.382812 22.265625 -35.8125 21.546875 -35.78125 Z M 21.546875 -35.78125 "/></g></g></g></svg>